<svg xmlns="http://www.w3.org/2000/svg" width="27" height="30.125" viewBox="0 0 27 30.125">
  <defs>
    <style>
      .cls-1 {
        fill: #182353;
        fill-rule: evenodd;
      }
    </style>
  </defs>
  <path id="mask" class="cls-1" d="M334.846,866.735a0.768,0.768,0,0,0-.715-0.812h-4.8a0.768,0.768,0,0,0-.715.812v2.53a0.768,0.768,0,0,0,.715.812h4.8a0.768,0.768,0,0,0,.715-0.812v-2.53ZM339,865.584v4.845a0.69,0.69,0,0,1-.693.686H312.693a0.689,0.689,0,0,1-.693-0.686v-4.845a4.8,4.8,0,0,1,3.063-4.481l6.061-2.4a0.7,0.7,0,0,1,.541.011,0.69,0.69,0,0,1,.368.393l1.523,4.171,0.3-.859-0.48-1.162a0.683,0.683,0,0,1,.066-0.642,0.694,0.694,0,0,1,.576-0.3h2.96a0.694,0.694,0,0,1,.576.3,0.683,0.683,0,0,1,.066.642l-0.48,1.162,0.3,0.859,1.523-4.171a0.69,0.69,0,0,1,.368-0.393,0.7,0.7,0,0,1,.541-0.011l6.061,2.4A4.8,4.8,0,0,1,339,865.584h0ZM332.623,852.3c-0.458,1.806-1.528,2.2-2.1,2.283a11.954,11.954,0,0,1-1.9,2.949,3.779,3.779,0,0,1-1.193.745,5.117,5.117,0,0,1-3.87,0,3.779,3.779,0,0,1-1.193-.745,11.954,11.954,0,0,1-1.9-2.949c-0.57-.079-1.64-0.477-2.1-2.283a2.952,2.952,0,0,1,.187-2.34,1.82,1.82,0,0,1,.545-0.556c0-.192.008-0.433,0.03-0.708a3.4,3.4,0,0,1-.224-3.156,2.736,2.736,0,0,1,2.567-2.047,4.551,4.551,0,0,1,1.375-1.553A5.189,5.189,0,0,1,325.9,841a6.75,6.75,0,0,1,4.069,1.466c2.048,1.556,1.873,5.006,1.822,5.633a9.535,9.535,0,0,1,.1,1.3,1.809,1.809,0,0,1,.545.556,2.951,2.951,0,0,1,.187,2.34h0Z" transform="translate(-312 -841)"/>
</svg>
